<svg width="150" height="122" viewBox="0 0 150 122" fill="none" xmlns="http://www.w3.org/2000/svg">
<path fill-rule="evenodd" clip-rule="evenodd" d="M22.0655 24.1842L75 5.62411L127.935 24.1842L125.259 46.9916L145.035 45.7011L138.512 58.2226L146.053 70.3L143.24 70.4638L143.239 70.4638L143.236 70.464L142.415 70.5119C142.119 70.5292 141.749 70.5508 141.318 70.576C140.984 70.5956 140.613 70.6173 140.211 70.6409C138.75 70.7266 136.878 70.8367 134.865 70.9558V76.7482L133.312 76.8696L133.178 75.2143V69.3922C136.356 69.2035 139.367 69.0267 141.23 68.9177C142.419 68.8481 143.14 68.8061 143.14 68.8061L136.578 58.2962L142.175 47.552L123.351 48.7803L126.105 25.3055L75 7.38684L23.8949 25.3055L26.649 48.7803L7.82473 47.552L13.4216 58.296L6.85984 68.8059C6.85984 68.8059 7.58138 68.8479 8.76996 68.9174C10.6331 69.0265 13.6438 69.2032 16.8218 69.3919V75.2143L16.6826 76.8692L15.1353 76.7429V70.9555C13.1224 70.8364 11.2501 70.7263 9.78854 70.6406C8.86878 70.5867 8.11167 70.5424 7.58452 70.5116L6.76373 70.4638L6.7605 70.4636L3.94736 70.2998L11.4878 58.2224L4.9651 45.7011L24.7413 46.9916L22.0655 24.1842ZM31.6897 91.7449L29.8524 76.085C21.7831 75.6191 16.8218 75.2143 16.8218 75.2143C16.6826 76.8692 16.6825 76.8692 16.6826 76.8692L16.6837 76.8693L16.6867 76.8695L16.7423 76.874C16.7813 76.8771 16.8393 76.8818 16.9157 76.8878C17.0686 76.8999 17.2954 76.9177 17.5925 76.9404C18.1867 76.9859 19.0622 77.0512 20.19 77.1312C22.1763 77.272 24.9456 77.458 28.3394 77.6599L30.1157 92.8002L75 116.376L119.884 92.8002L121.663 77.641C125.025 77.4434 127.79 77.2619 129.78 77.1247C130.912 77.0468 131.794 76.9831 132.393 76.9388C132.693 76.9167 132.922 76.8995 133.076 76.8877L133.311 76.8697L133.312 76.8696C133.312 76.8696 133.312 76.8696 133.178 75.2143C133.178 75.2143 128.146 75.6077 120.15 76.0654L118.31 91.7449L75 114.494L31.6897 91.7449Z" fill="white"/>
<path d="M28.964 70.0145C24.0634 69.6886 7.07401 68.6994 7.07401 68.6994L13.6358 58.1896L8.0389 47.4455C8.0389 47.4455 29.769 48.8635 29.9024 48.872C30.4853 48.9055 30.9365 49.3858 30.9228 49.9659L30.4349 68.9945C30.4286 69.2836 30.3025 69.5554 30.0792 69.7564C29.8745 69.9389 29.6132 70.0384 29.3411 70.0384C29.3403 70.0382 29.2092 70.0308 28.964 70.0145Z" fill="#2F3C42"/>
<path d="M121.464 70.0147C126.365 69.689 143.354 68.6996 143.354 68.6996L136.793 58.1898L142.389 47.4455C142.389 47.4455 120.659 48.8635 120.526 48.872C119.943 48.9055 119.492 49.3858 119.506 49.9659L119.994 68.9945C120 69.2836 120.126 69.5554 120.349 69.7564C120.554 69.9389 120.815 70.0384 121.087 70.0384C121.087 70.0384 121.219 70.031 121.464 70.0147Z" fill="#2F3C42"/>
<path d="M17.036 55.7762L33.2193 49.7181L32.3421 57.2491L17.036 55.7762Z" fill="#1E2427"/>
<path d="M133.392 55.7762L117.209 49.7181L118.086 57.2491L133.392 55.7762Z" fill="#1E2427"/>
<path d="M75.2142 7.28043L24.109 25.1991L31.9038 91.6385L75.2142 114.387L118.525 91.6385L126.319 25.1991L75.2142 7.28043Z" fill="#DD0031"/>
<path d="M75.2141 114.387L118.524 91.6384L126.319 25.199L75.2141 7.28036V114.387Z" fill="#C3002F"/>
<path fill-rule="evenodd" clip-rule="evenodd" d="M31.7221 29.8761L38.4516 87.2355L75.2142 106.545L111.977 87.2355L118.706 29.8761L75.2142 14.6267L31.7221 29.8761ZM75.2142 7.28043L24.109 25.1991L31.9038 91.6385L75.2142 114.387L118.525 91.6385L126.319 25.1991L75.2142 7.28043Z" fill="#192838"/>
<path fill-rule="evenodd" clip-rule="evenodd" d="M47.5322 84.2635L75.2141 24.0159L102.896 84.2635H92.557L86.9825 70.7596H63.4457L57.8712 84.2635H47.5322ZM83.2662 62.4353L75.2141 43.6318L67.162 62.4353H83.2662Z" fill="white"/>
<path d="M75.2141 70.7596H86.9825L92.557 84.2635H102.896L75.2141 24.0159V43.6318L83.2661 62.4353H75.2141V70.7596Z" fill="#B4B4B3"/>
<path d="M96.6988 39.0748C97.5753 39.1826 98.3641 38.9712 99.0758 38.4368C99.7843 37.8989 100.203 37.1927 100.323 36.3112C100.539 34.7183 100.756 33.1256 100.972 31.5328C100.415 31.4536 99.8586 31.3769 99.3016 31.3031C99.1002 32.8961 98.8987 34.4894 98.6971 36.0826C98.5872 36.9388 97.7499 37.5711 96.8826 37.4646C96.0069 37.3568 95.3478 36.5457 95.4394 35.682C95.6118 34.0852 95.7842 32.4885 95.9565 30.8917C95.3986 30.8284 94.8404 30.7681 94.2821 30.7101C94.1242 32.3101 93.9663 33.91 93.8083 35.5101C93.7211 36.3954 93.9645 37.1833 94.528 37.8775C95.092 38.5688 95.8125 38.9658 96.6988 39.0748ZM102.372 39.7959C102.61 39.4248 102.848 39.0546 103.088 38.6845C103.994 38.8303 104.9 38.9835 105.804 39.1441C105.915 39.5736 106.025 40.003 106.134 40.4327C106.705 40.5359 107.275 40.6421 107.845 40.7514C107.136 37.8581 106.371 34.9675 105.548 32.081C103.865 34.5431 102.235 37.0283 100.659 39.5346C101.23 39.6189 101.801 39.7059 102.372 39.7959ZM104.945 35.8517C105.101 36.4476 105.254 37.0435 105.405 37.6396C104.916 37.5548 104.427 37.4718 103.938 37.3912C104.271 36.8773 104.607 36.3639 104.945 35.8517Z" fill="#B4B4B3"/>
<path d="M47.9548 40.4383C47.4686 37.6732 46.9825 34.9082 46.4965 32.1434C45.908 32.2497 45.3199 32.3588 44.7319 32.4705C45.2435 35.2308 45.755 37.9911 46.2666 40.7514C46.8289 40.6441 47.3916 40.5397 47.9548 40.4383ZM49.8549 40.1161C50.4186 40.0204 50.983 39.9275 51.5473 39.8372C51.3074 38.297 51.0675 36.7566 50.8278 35.2164C52.812 36.5324 54.7551 37.8801 56.6565 39.2577C56.2928 36.4085 55.9292 33.5593 55.5655 30.7101C54.9719 30.7879 54.3785 30.8684 53.7853 30.952C53.997 32.4965 54.2085 34.041 54.4201 35.5855C52.4719 34.2324 50.482 32.9102 48.4517 31.6206C48.9193 34.4525 49.3872 37.2844 49.8549 40.1161Z" fill="white"/>
<path d="M75.2145 76.7327C45.4936 76.7327 23.0681 74.703 17.2954 74.262V55.8134C23.5011 56.3016 45.7455 58.2479 75.2145 58.2479C103.268 58.2479 126.762 56.2917 133.134 55.8134V74.262C127.182 74.6954 103.478 76.7327 75.2145 76.7327Z" fill="white"/>
<path d="M131.109 58.2176V73.009C123.992 73.5164 99.7118 75.0935 75.4138 75.0935C49.9045 75.0935 26.226 73.5311 19.3192 73.0167V58.2266C26.7028 58.7909 50.1779 60.3667 75.4138 60.3667C99.4827 60.3667 123.531 58.7728 131.109 58.2176ZM133.392 55.7762C133.392 55.7762 104.656 58.1057 75.4138 58.1057C44.5732 58.1057 17.036 55.7762 17.036 55.7762V75.1078C17.036 75.1078 44.5732 77.3546 75.4138 77.3546C104.656 77.3546 133.392 75.1078 133.392 75.1078V55.7762Z" fill="#263238"/>
<path fill-rule="evenodd" clip-rule="evenodd" d="M28.3677 67.6192C29.961 67.7139 31.5542 67.8039 33.1478 67.889C33.1794 67.3508 33.2111 66.8124 33.2427 66.2741C31.6528 66.1893 30.0628 66.0995 28.4732 66.0049C28.4381 66.5432 28.403 67.0812 28.3677 67.6192ZM49.5884 67.5845C47.6945 65.7593 45.8151 63.9274 43.95 62.089C43.8115 65.2255 43.6731 68.3623 43.5346 71.4988C44.1913 71.5252 44.8481 71.5508 45.5049 71.5754C45.5755 69.8717 45.6461 68.1682 45.7167 66.4645C47.6001 68.3008 49.4981 70.1305 51.4107 71.9533C51.5152 68.8136 51.6198 65.6738 51.7243 62.5341C51.0737 62.5143 50.4232 62.4939 49.7728 62.4726C49.7112 64.1765 49.6498 65.8806 49.5884 67.5845ZM58.0206 66.7639C58.0063 67.3524 57.9919 67.9409 57.9777 68.5294C58.9061 68.5499 59.8346 68.5689 60.763 68.5861C60.3184 69.4455 59.3194 70.1709 58.0477 70.143C57.2223 70.1248 56.5293 69.8339 55.9703 69.2713C55.4033 68.7084 55.1317 68.04 55.1536 67.267C55.1754 66.4938 55.4843 65.8407 56.0777 65.3065C56.6674 64.7685 57.3687 64.5088 58.1835 64.5267C58.9824 64.5443 59.6703 64.8345 60.2493 65.3983C60.7229 64.9673 61.1958 64.5359 61.6676 64.1041C60.889 63.351 59.7109 62.7025 58.2165 62.6696C58.2146 62.6639 58.2128 62.6581 58.2109 62.6524C56.8536 62.6224 55.6872 63.0525 54.7057 63.9452C53.7163 64.8413 53.1988 65.9298 53.1589 67.2132C53.1186 68.508 53.5682 69.6227 54.5135 70.5548C55.4463 71.4904 56.605 71.9748 57.9842 72.0052C59.3513 72.0354 60.5342 71.6025 61.5274 70.7093C62.512 69.8233 63.1317 68.5826 63.022 66.859C61.355 66.8325 59.6877 66.8008 58.0206 66.7639ZM75.3884 62.9178C73.1495 62.9172 70.9106 62.9072 68.672 62.8876C68.666 63.4991 68.6602 64.1105 68.6543 64.7221C69.4513 64.729 70.2483 64.7349 71.0453 64.7394C71.0297 67.1988 71.0142 69.658 70.9987 72.1173C71.6577 72.1212 72.317 72.1241 72.9763 72.1263C72.9851 69.6669 72.9939 67.2076 73.0028 64.7482C73.7978 64.7508 74.5929 64.7522 75.3878 64.7524C75.388 64.1407 75.3882 63.5293 75.3884 62.9178ZM75.0991 72.1301C75.809 72.1305 76.5189 72.1301 77.2288 72.1287C77.4488 71.6614 77.6685 71.1941 77.8877 70.7269C79.0052 70.7236 80.1226 70.7181 81.2401 70.7102C81.4643 71.1755 81.6891 71.6404 81.9143 72.1054C82.6261 72.0998 83.3381 72.0932 84.05 72.0857C82.5206 68.968 81.0108 65.8458 79.5201 62.7195C78.0655 65.8605 76.592 68.9974 75.0991 72.1301ZM80.4515 69.0808C79.8536 69.0844 79.2557 69.0874 78.658 69.0898C78.9563 68.4391 79.2536 67.788 79.5502 67.137C79.8498 67.7851 80.1502 68.433 80.4515 69.0808ZM87.5899 70.1996C87.5492 67.7425 87.5086 65.2853 87.4677 62.8283C86.819 62.838 86.1701 62.847 85.5214 62.8552C85.564 65.9258 85.6065 68.9963 85.6489 72.067C87.6202 72.0421 89.5915 72.0101 91.5626 71.9706C91.5492 71.3574 91.5355 70.7441 91.5221 70.1309C90.2116 70.157 88.9008 70.1799 87.5899 70.1996ZM99.6058 62.5522C98.8571 62.575 98.1085 62.5968 97.3598 62.6175C96.5743 63.998 95.7841 65.3773 94.989 66.7555C94.9526 65.3976 94.9159 64.0399 94.8795 62.682C94.2329 62.6978 93.5861 62.7129 92.9395 62.727C93.0137 65.797 93.0881 68.867 93.1623 71.9372C93.8174 71.9227 94.4722 71.9076 95.1273 71.8915C95.0926 70.6042 95.0581 69.3167 95.0233 68.0294C96.006 69.2937 96.9937 70.5559 97.9863 71.8165C98.7852 71.7942 99.5839 71.7704 100.383 71.7457C99.2082 70.2708 98.0402 68.7931 96.8793 67.3131C97.7943 65.7275 98.7033 64.1405 99.6058 62.5522ZM104.714 66.3533C104.031 66.1886 102.913 66.0066 102.881 65.1771C102.862 64.6661 103.293 64.2263 103.835 64.2069C104.367 64.1879 104.832 64.5957 104.853 65.101C105.494 64.9477 106.134 64.7937 106.775 64.6388C106.514 63.2815 105.237 62.2806 103.749 62.3337C102.119 62.392 100.838 63.6846 100.892 65.2376C100.935 66.4914 102.017 67.3798 103.221 67.7209C103.903 67.9184 105.103 67.9917 105.138 68.8319C105.159 69.3429 104.577 69.7894 104.034 69.8088C104.037 69.8116 104.04 69.8141 104.043 69.8169C103.492 69.8366 102.883 69.4381 102.863 68.9242C102.219 69.0768 101.573 69.2286 100.928 69.3796C101.197 70.7437 102.606 71.7446 104.123 71.6901C105.775 71.6314 107.204 70.3183 107.135 68.7662C107.078 67.4852 105.955 66.6434 104.714 66.3533ZM121.956 66.0488C120.367 66.1419 118.777 66.2301 117.187 66.3135C117.218 66.8517 117.249 67.3901 117.28 67.9283C118.874 67.8447 120.467 67.7562 122.06 67.6631C122.026 67.1249 121.991 66.5869 121.956 66.0488Z" fill="#263238"/>
</svg>
